<svg xmlns="http://www.w3.org/2000/svg" width="72.5mm" height="50.094mm" viewBox="0 0 205.51 142">
<rect width="100%" height="100%" fill="white"/>
<rect x="2" y="4" width="201.51" height="26" fill="none" stroke="black" stroke-width=".5"/>
<text x="102.755" y="14" text-anchor="middle" font-family="Times New Roman,serif" font-size="8">Retained history and event attributes</text>
<text x="102.755" y="24" text-anchor="middle" font-family="Times New Roman,serif" font-size="8">Node memory and pair context</text>
<path d="M102.755 30 V38 M100.755 36 L102.755 40 L104.755 36" fill="none" stroke="black" stroke-width=".6"/>
<rect x="2" y="40" width="201.51" height="26" fill="none" stroke="black" stroke-width=".5"/>
<text x="102.755" y="50" text-anchor="middle" font-family="Times New Roman,serif" font-size="8">Temporal backbone F<tspan baseline-shift="sub" font-size="6">θ</tspan></text>
<text x="102.755" y="60" text-anchor="middle" font-family="Times New Roman,serif" font-size="8">Candidate representation h</text>
<path d="M102.755 66 V74 M100.755 72 L102.755 76 L104.755 72" fill="none" stroke="black" stroke-width=".6"/>
<rect x="2" y="76" width="201.51" height="26" fill="none" stroke="black" stroke-width=".5"/>
<text x="102.755" y="86" text-anchor="middle" font-family="Times New Roman,serif" font-size="8">Shared scored boundary</text>
<text x="102.755" y="96" text-anchor="middle" font-family="Times New Roman,serif" font-size="8">Connected h or detached sg(h)</text>
<path d="M102.755 102 V110 M100.755 108 L102.755 112 L104.755 108" fill="none" stroke="black" stroke-width=".6"/>
<rect x="2" y="112" width="201.51" height="26" fill="none" stroke="black" stroke-width=".5"/>
<text x="102.755" y="122" text-anchor="middle" font-family="Times New Roman,serif" font-size="8">State-transition readout G<tspan baseline-shift="sub" font-size="6">ψ</tspan></text>
<text x="102.755" y="132" text-anchor="middle" font-family="Times New Roman,serif" font-size="8">Positive and negative link scores</text>
</svg>